<svg class="main-svg" xmlns="http://www.w3.org/2000/svg" xmlns:xlink="http://www.w3.org/1999/xlink" width="700" height="500" style="" viewBox="0 0 700 500"><rect x="0" y="0" width="700" height="500" style="fill: rgb(255, 255, 255); fill-opacity: 1;"/><defs id="defs-6af5cc"><g class="clips"><clipPath id="clip6af5ccpolar-for-traces"><path d="M180,0A180,180 0,1,0 -180,-2.2043642384652358e-14A180,180 0,1,0 180,4.4087284769304716e-14Z" transform="translate(180,180)"/></clipPath></g><g class="gradients"/><g class="patterns"/></defs><g class="bglayer"/><g class="layer-below"><g class="imagelayer"/><g class="shapelayer"/></g><g class="cartesianlayer"/><g class="polarlayer"><g class="polar"><g class="polarsublayer draglayer"/><g class="polarsublayer plotbg"><path d="M180,0A180,180 0,1,0 -180,-2.2043642384652358e-14A180,180 0,1,0 180,4.4087284769304716e-14Z" transform="translate(370,240)" style="fill: rgb(229, 236, 246); fill-opacity: 1;"/></g><g class="polarsublayer backplot"><g class="maplayer"/></g><g class="polarsublayer angular-grid" style="fill: none;"><path class="angularaxisgrid" d="M370,240L550,240" style="stroke: rgb(255, 255, 255); stroke-opacity: 1; stroke-width: 1px;"/><path class="angularaxisgrid" d="M370,240L425.62305898749054,68.80982706687237" style="stroke: rgb(255, 255, 255); stroke-opacity: 1; stroke-width: 1px;"/><path class="angularaxisgrid" d="M370,240L224.3769410125095,134.1986545873548" style="stroke: rgb(255, 255, 255); stroke-opacity: 1; stroke-width: 1px;"/><path class="angularaxisgrid" d="M370,240L224.37694101250943,345.80134541264516" style="stroke: rgb(255, 255, 255); stroke-opacity: 1; stroke-width: 1px;"/><path class="angularaxisgrid" d="M370,240L425.6230589874905,411.19017293312766" style="stroke: rgb(255, 255, 255); stroke-opacity: 1; stroke-width: 1px;"/></g><g class="polarsublayer radial-grid" transform="translate(370,240)" style="fill: none;"><path class="xgrid" d="M36,0A36,36 0,1,0 -36,-4.408728476930472e-15A36,36 0,1,0 36,8.817456953860943e-15Z" style="stroke: rgb(255, 255, 255); stroke-opacity: 1; stroke-width: 1px;"/><path class="xgrid" d="M72,0A72,72 0,1,0 -72,-8.817456953860943e-15A72,72 0,1,0 72,1.7634913907721887e-14Z" style="stroke: rgb(255, 255, 255); stroke-opacity: 1; stroke-width: 1px;"/><path class="xgrid" d="M108,0A108,108 0,1,0 -108,-1.3226185430791415e-14A108,108 0,1,0 108,2.645237086158283e-14Z" style="stroke: rgb(255, 255, 255); stroke-opacity: 1; stroke-width: 1px;"/><path class="xgrid" d="M144,0A144,144 0,1,0 -144,-1.7634913907721887e-14A144,144 0,1,0 144,3.5269827815443773e-14Z" style="stroke: rgb(255, 255, 255); stroke-opacity: 1; stroke-width: 1px;"/></g><g class="polarsublayer frontplot" transform="translate(190,60)"><g class="barlayer"/><g class="scatterlayer"><g class="trace scatter traceb1976a" style="stroke-miterlimit: 2; opacity: 1;"><g class="fills" clip-path="url(#clip6af5ccpolar-for-traces)"><g><path class="js-fill" d="M243.69,180L215.77,69.92L82.58,109.22L83.6,250.04L217.1,294.18L243.69,180Z" style="fill: rgb(127, 140, 141); fill-opacity: 0.3; stroke-width: 0;"/></g></g><g class="errorbars"/><g class="lines"><path class="js-line" d="M243.69,180L215.77,69.92L82.58,109.22L83.6,250.04L217.1,294.18L243.69,180" clip-path="url(#clip6af5ccpolar-for-traces)" style="vector-effect: none; fill: none; stroke: rgb(127, 140, 141); stroke-opacity: 1; stroke-width: 2px; opacity: 1;"/></g><g class="points"><path class="point" transform="translate(243.69,180)" d="M3,0A3,3 0 1,1 0,-3A3,3 0 0,1 3,0Z" style="opacity: 1; stroke-width: 0px; fill: rgb(127, 140, 141); fill-opacity: 1;"/><path class="point" transform="translate(215.77,69.92)" d="M3,0A3,3 0 1,1 0,-3A3,3 0 0,1 3,0Z" style="opacity: 1; stroke-width: 0px; fill: rgb(127, 140, 141); fill-opacity: 1;"/><path class="point" transform="translate(82.58,109.22)" d="M3,0A3,3 0 1,1 0,-3A3,3 0 0,1 3,0Z" style="opacity: 1; stroke-width: 0px; fill: rgb(127, 140, 141); fill-opacity: 1;"/><path class="point" transform="translate(83.6,250.04)" d="M3,0A3,3 0 1,1 0,-3A3,3 0 0,1 3,0Z" style="opacity: 1; stroke-width: 0px; fill: rgb(127, 140, 141); fill-opacity: 1;"/><path class="point" transform="translate(217.1,294.18)" d="M3,0A3,3 0 1,1 0,-3A3,3 0 0,1 3,0Z" style="opacity: 1; stroke-width: 0px; fill: rgb(127, 140, 141); fill-opacity: 1;"/><path class="point" transform="translate(243.69,180)" d="M3,0A3,3 0 1,1 0,-3A3,3 0 0,1 3,0Z" style="opacity: 1; stroke-width: 0px; fill: rgb(127, 140, 141); fill-opacity: 1;"/></g><g class="text"/></g><g class="trace scatter tracefe1a9b" style="stroke-miterlimit: 2; opacity: 1;"><g class="fills" clip-path="url(#clip6af5ccpolar-for-traces)"><g><path class="js-fill" d="M253.03,180L216.15,68.73L82.58,109.22L82.87,250.57L217.55,295.55L253.03,180Z" style="fill: rgb(44, 62, 80); fill-opacity: 0.3; stroke-width: 0;"/></g></g><g class="errorbars"/><g class="lines"><path class="js-line" d="M253.03,180L216.15,68.73L82.58,109.22L82.87,250.57L217.55,295.55L253.03,180" clip-path="url(#clip6af5ccpolar-for-traces)" style="vector-effect: none; fill: none; stroke: rgb(44, 62, 80); stroke-opacity: 1; stroke-width: 2px; opacity: 1;"/></g><g class="points"><path class="point" transform="translate(253.03,180)" d="M3,0A3,3 0 1,1 0,-3A3,3 0 0,1 3,0Z" style="opacity: 1; stroke-width: 0px; fill: rgb(44, 62, 80); fill-opacity: 1;"/><path class="point" transform="translate(216.15,68.73)" d="M3,0A3,3 0 1,1 0,-3A3,3 0 0,1 3,0Z" style="opacity: 1; stroke-width: 0px; fill: rgb(44, 62, 80); fill-opacity: 1;"/><path class="point" transform="translate(82.58,109.22)" d="M3,0A3,3 0 1,1 0,-3A3,3 0 0,1 3,0Z" style="opacity: 1; stroke-width: 0px; fill: rgb(44, 62, 80); fill-opacity: 1;"/><path class="point" transform="translate(82.87,250.57)" d="M3,0A3,3 0 1,1 0,-3A3,3 0 0,1 3,0Z" style="opacity: 1; stroke-width: 0px; fill: rgb(44, 62, 80); fill-opacity: 1;"/><path class="point" transform="translate(217.55,295.55)" d="M3,0A3,3 0 1,1 0,-3A3,3 0 0,1 3,0Z" style="opacity: 1; stroke-width: 0px; fill: rgb(44, 62, 80); fill-opacity: 1;"/><path class="point" transform="translate(253.03,180)" d="M3,0A3,3 0 1,1 0,-3A3,3 0 0,1 3,0Z" style="opacity: 1; stroke-width: 0px; fill: rgb(44, 62, 80); fill-opacity: 1;"/></g><g class="text"/></g></g></g><g class="polarsublayer angular-line"><path d="M180,0A180,180 0,1,0 -180,-2.2043642384652358e-14A180,180 0,1,0 180,4.4087284769304716e-14Z" transform="translate(370,240)" stroke-width="1" style="fill: none; stroke: rgb(255, 255, 255); stroke-opacity: 1;"/></g><g class="polarsublayer radial-line"><line x1="0" y1="0" x2="180" y2="0" transform="translate(370,240)" stroke-width="1" style="fill: none; stroke: rgb(255, 255, 255); stroke-opacity: 1;"/></g><g class="polarsublayer angular-axis"><g class="angularaxistick"><text text-anchor="start" x="2.7" y="3.8499999999999996" transform="translate(550,240)translate(0,-7.15)" style="font-family: 'Times New Roman'; font-size: 11px; fill: rgb(0, 0, 0); fill-opacity: 1; white-space: pre; opacity: 1;"><tspan class="line" dy="0em" x="2.7" y="3.8499999999999996">Emissions</tspan><tspan class="line" dy="1.3em" x="2.7" y="3.8499999999999996">Reduction</tspan></text></g><g class="angularaxistick"><text text-anchor="start" x="0.8343458848123582" y="-3.4704615015027045" transform="translate(425.62305898749054,68.80982706687237)translate(0,-13.95005409151035)" style="font-family: 'Times New Roman'; font-size: 11px; fill: rgb(0, 0, 0); fill-opacity: 1; white-space: pre; opacity: 1;"><tspan class="line" dy="0em" x="0.8343458848123582" y="-3.4704615015027045">Cost</tspan><tspan class="line" dy="1.3em" x="0.8343458848123582" y="-3.4704615015027045">Efficiency</tspan></text></g><g class="angularaxistick"><text text-anchor="end" x="-2.184345884812358" y="0.23456769211042783" transform="translate(224.3769410125095,134.1986545873548)" style="font-family: 'Times New Roman'; font-size: 11px; fill: rgb(0, 0, 0); fill-opacity: 1; white-space: pre; opacity: 1;">Equity</text></g><g class="angularaxistick"><text text-anchor="end" x="-2.1843458848123585" y="11.167373384750428" transform="translate(224.37694101250943,345.80134541264516)translate(0,-2.947335446108818)" style="font-family: 'Times New Roman'; font-size: 11px; fill: rgb(0, 0, 0); fill-opacity: 1; white-space: pre; opacity: 1;"><tspan class="line" dy="0em" x="-2.1843458848123585" y="11.167373384750428">Travel Time</tspan><tspan class="line" dy="1.3em" x="-2.1843458848123585" y="11.167373384750428">Efficiency</tspan></text></g><g class="angularaxistick"><text text-anchor="start" x="0.8343458848123576" y="14.219189701587151" transform="translate(425.6230589874905,411.19017293312766)translate(0,-0.34994590848965146)" style="font-family: 'Times New Roman'; font-size: 11px; fill: rgb(0, 0, 0); fill-opacity: 1; white-space: pre; opacity: 1;"><tspan class="line" dy="0em" x="0.8343458848123576" y="14.219189701587151">Overall</tspan><tspan class="line" dy="1.3em" x="0.8343458848123576" y="14.219189701587151">Score</tspan></text></g></g><g class="polarsublayer radial-axis" transform="translate(370,240)"><g class="xtick"><text text-anchor="middle" x="0" y="12.5" transform="" style="font-family: 'Times New Roman'; font-size: 10px; fill: rgb(0, 0, 0); fill-opacity: 1; white-space: pre; opacity: 1;">0</text></g><g class="xtick"><text text-anchor="middle" x="0" y="12.5" transform="translate(36,0)" style="font-family: 'Times New Roman'; font-size: 10px; fill: rgb(0, 0, 0); fill-opacity: 1; white-space: pre; opacity: 1;">20</text></g><g class="xtick"><text text-anchor="middle" x="0" y="12.5" transform="translate(72,0)" style="font-family: 'Times New Roman'; font-size: 10px; fill: rgb(0, 0, 0); fill-opacity: 1; white-space: pre; opacity: 1;">40</text></g><g class="xtick"><text text-anchor="middle" x="0" y="12.5" transform="translate(108,0)" style="font-family: 'Times New Roman'; font-size: 10px; fill: rgb(0, 0, 0); fill-opacity: 1; white-space: pre; opacity: 1;">60</text></g><g class="xtick"><text text-anchor="middle" x="0" y="12.5" transform="translate(144,0)" style="font-family: 'Times New Roman'; font-size: 10px; fill: rgb(0, 0, 0); fill-opacity: 1; white-space: pre; opacity: 1;">80</text></g><g class="xtick"><text text-anchor="middle" x="0" y="12.5" transform="translate(180,0)" style="font-family: 'Times New Roman'; font-size: 10px; fill: rgb(0, 0, 0); fill-opacity: 1; white-space: pre; opacity: 1;">100</text></g></g></g></g><g class="smithlayer"/><g class="ternarylayer"/><g class="geolayer"/><g class="funnelarealayer"/><g class="pielayer"/><g class="iciclelayer"/><g class="treemaplayer"/><g class="sunburstlayer"/><g class="glimages"/><defs id="topdefs-6af5cc"><g class="clips"/><clipPath id="legend6af5cc"><rect width="183" height="29" x="1" y="1"/></clipPath></defs><g class="layer-above"><g class="imagelayer"/><g class="shapelayer"/></g><g class="infolayer"><g class="legend" pointer-events="all" transform="translate(277.5,442.99999999999994)"><rect class="bg" shape-rendering="crispEdges" style="stroke: rgb(0, 0, 0); stroke-opacity: 1; fill: rgb(255, 255, 255); fill-opacity: 1; stroke-width: 1px;" width="184" height="30" x="0.5" y="0.5"/><g class="scrollbox" transform="" clip-path="url(#legend6af5cc)"><g class="groups"><g class="traces" transform="translate(1,15.5)" style="opacity: 1;"><text class="legendtext" text-anchor="start" x="40" y="4.29" style="font-family: 'Times New Roman'; font-size: 11px; fill: rgb(0, 0, 0); fill-opacity: 1; white-space: pre;">Baseline</text><g class="layers" style="opacity: 1;"><g class="legendfill"><path class="js-fill" d="M5,0h30v6h-30z" style="stroke-width: 0; fill: rgb(127, 140, 141); fill-opacity: 0.3;"/></g><g class="legendlines"><path class="js-line" d="M5,0h30" style="fill: none; stroke: rgb(127, 140, 141); stroke-opacity: 1; stroke-width: 2px;"/></g><g class="legendsymbols"><g class="legendpoints"><path class="scatterpts" transform="translate(20,0)" d="M3,0A3,3 0 1,1 0,-3A3,3 0 0,1 3,0Z" style="opacity: 1; stroke-width: 0px; fill: rgb(127, 140, 141); fill-opacity: 1;"/></g></g></g><rect class="legendtoggle" x="0" y="-9.5" width="81.494140625" height="19" style="fill: rgb(0, 0, 0); fill-opacity: 0;"/></g><g class="traces" transform="translate(84.994140625,15.5)" style="opacity: 1;"><text class="legendtext" text-anchor="start" x="40" y="4.29" style="font-family: 'Times New Roman'; font-size: 11px; fill: rgb(0, 0, 0); fill-opacity: 1; white-space: pre;">With Policy</text><g class="layers" style="opacity: 1;"><g class="legendfill"><path class="js-fill" d="M5,0h30v6h-30z" style="stroke-width: 0; fill: rgb(44, 62, 80); fill-opacity: 0.3;"/></g><g class="legendlines"><path class="js-line" d="M5,0h30" style="fill: none; stroke: rgb(44, 62, 80); stroke-opacity: 1; stroke-width: 2px;"/></g><g class="legendsymbols"><g class="legendpoints"><path class="scatterpts" transform="translate(20,0)" d="M3,0A3,3 0 1,1 0,-3A3,3 0 0,1 3,0Z" style="opacity: 1; stroke-width: 0px; fill: rgb(44, 62, 80); fill-opacity: 1;"/></g></g></g><rect class="legendtoggle" x="0" y="-9.5" width="96.416015625" height="19" style="fill: rgb(0, 0, 0); fill-opacity: 0;"/></g></g></g><rect class="scrollbar" rx="20" ry="3" width="0" height="0" style="fill: rgb(128, 139, 164); fill-opacity: 1;" x="0" y="0"/></g><g class="g-gtitle"><text class="gtitle" x="350" y="30" text-anchor="middle" dy="0em" style="opacity: 1; font-family: 'Times New Roman'; font-size: 16px; fill: rgb(0, 0, 0); fill-opacity: 1; white-space: pre;"><tspan style="font-weight:bold">Figure 7.</tspan> Multi-Dimensional Policy Impact Assessment</text></g><g class="g-polartitle"/></g></svg>